<svg id="Layer_1" data-name="Layer 1" xmlns="http://www.w3.org/2000/svg" viewBox="0 0 189.54 232.01"><defs><style>.cls-1{fill:#333;}</style></defs><title>apple-logo-cinza</title><path class="cls-1" d="M126,77.24C109.5,71.11,93,64.44,76,69,64.66,71.84,52.87,80.66,42.67,93.61,36.77,98.25,28.84,123,31.55,145.5c.77,14,3.36,26.82,8.34,38.21,5.69,13.92,11.51,24.43,16.68,30,4.63,7.91,10.06,14.48,16.68,19.11,5.19,5.58,10.79,8,16.68,8.19a94.24,94.24,0,0,0,30.57-8.19,77.4,77.4,0,0,1,25,0c4.35,4.07,12.8,6.35,22.23,8.19,10.56-.22,17.64-4.22,22.23-10.92,8-5.07,10.94-10.73,13.9-16.38,6.7-7.38,12-19.05,16.68-32.75-11.05-7.7-20.12-18-27.79-30-3-10.79-4-21.57,0-32.75,2.24-6.19,6.53-12.52,11.12-19.11,3.43-4.89,7.14-7.6,11.12-8.19,1.79-.27,1-2.27-5.56-8.19-9.42-8.88-21.8-14.91-38.91-16.38C166.5,65.82,153.27,68.85,126,77.24Z" transform="translate(-31 -9)"/><path class="cls-1" d="M126,66.32C128.15,34,143.64,13.19,178.27,9,176.63,42.76,160.17,62.75,126,66.32Z" transform="translate(-31 -9)"/><path class="cls-1" d="M182,237.5c12.33-8.25,21.61-19.84,28.82-33.7" transform="translate(-31 -9)"/><path class="cls-1" d="M133.77,226c11.14,9.25,22.49,13.24,34,13" transform="translate(-31 -9)"/><path class="cls-1" d="M126.38,77.13A117.51,117.51,0,0,1,170,66.32" transform="translate(-31 -9)"/><path class="cls-1" d="M51.35,206.76c8.94,13.76,18.36,25.76,29.38,31.87" transform="translate(-31 -9)"/><path class="cls-1" d="M37.5,101.78c7.12-15.83,19-26,34.77-31.58" transform="translate(-31 -9)"/></svg>