<svg id="Layer_1" data-name="Layer 1" xmlns="http://www.w3.org/2000/svg" viewBox="0 0 189.54 232"><defs><style>.cls-1{fill:#333;}</style></defs><title>Apple-logo</title><path class="cls-1" d="M117.77,69.74c-16.54-6.13-33.06-12.8-50-8.19C56.39,64.34,44.6,73.16,34.4,86.11,28.5,90.75,20.57,115.47,23.28,138c.77,14,3.36,26.82,8.34,38.21,5.69,13.92,11.51,24.43,16.68,30,4.63,7.91,10.06,14.48,16.68,19.11,5.19,5.58,10.79,8,16.68,8.19a94.24,94.24,0,0,0,30.57-8.19,77.4,77.4,0,0,1,25,0c4.35,4.07,12.8,6.35,22.23,8.19,10.56-.22,17.64-4.22,22.23-10.92,8-5.07,10.94-10.73,13.9-16.38,6.7-7.38,12-19.05,16.68-32.75-11.05-7.7-20.12-18-27.79-30-3-10.79-4-21.57,0-32.75,2.24-6.19,6.53-12.52,11.12-19.11,3.43-4.89,7.14-7.6,11.12-8.19,1.79-.27,1-2.27-5.56-8.19-9.42-8.88-21.8-14.91-38.91-16.38C158.23,58.32,145,61.35,117.77,69.74Z" transform="translate(-22.73 -1.5)"/><path class="cls-1" d="M117.77,58.82C119.88,26.45,135.37,5.69,170,1.5,168.36,35.26,151.9,55.25,117.77,58.82Z" transform="translate(-22.73 -1.5)"/><polyline class="cls-1" points="13.41 86.49 13.41 86.49 13.41 86.49 13.41 86.49 13.41 86.49"/><path class="cls-1" d="M173.72,230c12.33-8.25,21.61-19.84,28.82-33.7" transform="translate(-22.73 -1.5)"/><path class="cls-1" d="M182.91,133.29" transform="translate(-22.73 -1.5)"/><path class="cls-1" d="M125.5,218.5c11.14,9.25,22.49,13.24,34,13" transform="translate(-22.73 -1.5)"/><path class="cls-1" d="M118.11,69.63a117.51,117.51,0,0,1,43.58-10.81" transform="translate(-22.73 -1.5)"/><path class="cls-1" d="M169.5,135.5q21.13.18,17,29" transform="translate(-22.73 -1.5)"/></svg>